<?xml version="1.0" standalone="no"?>
<!DOCTYPE svg PUBLIC "-//W3C//DTD SVG 20010904//EN"
 "http://www.w3.org/TR/2001/REC-SVG-20010904/DTD/svg10.dtd">
<svg version="1.0" xmlns="http://www.w3.org/2000/svg"
 width="834.000000pt" height="834.000000pt" viewBox="0 0 834.000000 834.000000"
 preserveAspectRatio="xMidYMid meet">

<g transform="translate(0.000000,834.000000) scale(0.100000,-0.100000)"
fill="#000000" stroke="none">
<path d="M3771 7915 c-7 -33 -26 -109 -42 -170 -120 -439 -273 -747 -493 -993
-34 -38 -56 -72 -56 -86 0 -26 -30 -118 -54 -164 -9 -17 -41 -57 -71 -90 -133
-144 -356 -189 -584 -117 l-84 27 -161 -12 c-232 -18 -492 -3 -905 50 -85 11
-156 18 -158 17 -5 -6 308 -154 382 -181 394 -144 822 -183 1155 -105 247 57
455 169 634 339 283 269 443 641 476 1107 8 123 -2 349 -18 408 -9 28 -10 27
-21 -30z"/>
<path d="M4354 7935 c-5 -16 -9 -142 -9 -280 1 -233 2 -259 27 -375 49 -229
122 -415 229 -586 24 -38 46 -71 49 -74 3 -3 18 -23 34 -45 49 -67 207 -217
287 -272 159 -109 345 -185 554 -226 153 -30 443 -30 623 2 148 25 333 76 479
132 111 42 358 157 352 164 -2 1 -85 -7 -184 -20 -417 -54 -637 -65 -892 -44
-129 10 -134 9 -215 -16 -99 -30 -244 -42 -338 -26 -182 30 -335 177 -376 361
-14 62 -23 79 -61 119 -222 229 -416 640 -526 1111 -22 94 -25 102 -33 75z"/>
<path d="M2222 7356 c-97 -47 -145 -127 -145 -246 -1 -348 435 -680 701 -535
90 49 132 127 132 244 0 98 -27 179 -97 289 -10 15 -23 32 -29 38 -6 7 -21 25
-35 41 -42 50 -132 115 -209 151 -66 32 -86 36 -170 39 -85 4 -101 1 -148 -21z"/>
<path d="M5660 7357 c-181 -65 -335 -220 -395 -398 -98 -286 102 -489 386
-392 162 55 328 217 393 383 22 57 32 192 17 245 -15 57 -65 121 -119 152 -66
39 -190 44 -282 10z"/>
<path d="M6985 6196 c-566 -474 -815 -1191 -620 -1783 157 -475 590 -880 1163
-1089 119 -43 135 -43 80 2 -354 293 -590 532 -743 751 -17 23 -43 48 -58 54
-56 24 -144 87 -199 143 -176 180 -197 434 -53 650 25 38 35 64 35 92 0 56 25
206 49 299 67 261 219 591 406 881 30 46 51 84 47 84 -4 0 -52 -38 -107 -84z"/>
<path d="M1100 6240 c7 -14 28 -47 45 -75 44 -69 98 -161 130 -220 149 -276
198 -382 260 -564 32 -94 50 -132 76 -160 40 -41 75 -89 107 -144 86 -150 86
-362 -2 -511 -26 -45 -96 -121 -139 -151 -17 -13 -39 -47 -58 -95 -119 -286
-360 -592 -706 -893 -45 -39 -81 -73 -79 -74 10 -10 210 81 319 145 242 142
489 374 612 575 17 26 40 64 53 83 41 64 121 269 149 380 24 98 27 128 27 299
1 218 -16 321 -84 500 -128 343 -341 624 -674 891 -42 33 -47 35 -36 14z"/>
<path d="M5155 5615 c-22 -6 -47 -14 -55 -17 -8 -4 -26 -9 -40 -11 -14 -3 -38
-10 -55 -15 -67 -24 -173 -40 -235 -35 -50 3 -61 1 -47 -7 9 -6 27 -8 38 -5
14 5 19 3 15 -4 -7 -10 -210 -6 -228 5 -17 11 -442 13 -523 3 -175 -21 -360
-60 -321 -67 10 -2 28 1 40 6 28 14 286 43 313 36 13 -4 20 -11 17 -19 -4 -10
1 -12 18 -8 13 3 28 9 33 13 14 11 163 10 188 0 19 -8 17 -9 -13 -9 -114 -2
-284 -20 -275 -30 4 -3 25 -6 48 -6 46 0 63 -18 22 -23 -27 -4 -35 -32 -9 -32
8 0 13 -4 10 -9 -3 -4 -41 -11 -85 -15 -51 -5 -81 -12 -84 -21 -7 -16 36 -26
89 -20 l39 5 -35 -10 c-19 -5 -70 -12 -112 -16 -55 -5 -78 -11 -78 -20 0 -13
10 -13 85 1 11 2 36 0 55 -5 l35 -8 -40 -2 c-43 -2 -92 -17 -65 -20 8 -1 30
-1 48 0 23 1 32 -3 32 -14 0 -11 -9 -16 -30 -16 -16 0 -30 -4 -30 -10 0 -5
-15 -10 -32 -10 -43 -1 -141 -24 -133 -31 3 -4 -22 -12 -55 -18 -33 -7 -60
-13 -60 -15 0 -2 28 -2 63 0 192 9 204 8 147 -16 -25 -10 -57 -19 -72 -19 -16
-1 -28 -4 -28 -8 0 -10 81 -10 96 0 6 3 14 3 19 -1 4 -4 -10 -12 -32 -18 -37
-11 -37 -11 25 -10 68 2 108 24 84 48 -19 19 -14 29 12 22 17 -4 27 0 35 13
11 17 11 17 22 0 7 -12 17 -16 31 -11 18 5 20 3 15 -15 -7 -29 16 -50 50 -43
15 2 25 2 22 -2 -3 -4 -26 -10 -49 -14 -35 -6 -44 -11 -45 -30 -1 -17 4 -22
23 -22 37 0 23 -6 -28 -13 -39 -5 -43 -4 -27 8 13 9 14 14 5 18 -15 5 -40 -17
-31 -27 4 -3 -3 -6 -15 -6 -12 0 -22 5 -22 10 0 6 5 10 10 10 6 0 10 7 10 16
0 12 -6 15 -22 10 -13 -3 -38 -6 -55 -6 -18 0 -33 -4 -33 -10 0 -5 5 -10 11
-10 6 0 17 -7 25 -15 14 -13 14 -15 0 -15 -27 0 -17 -19 12 -22 16 -2 26 -8
24 -16 -2 -11 9 -13 48 -10 36 2 50 -1 50 -10 0 -15 40 -32 83 -33 18 -1 24
-3 15 -6 -10 -2 -18 -9 -18 -14 0 -6 -4 -7 -10 -4 -10 6 -280 -20 -335 -32
-29 -7 -28 -7 15 -14 25 -4 69 -5 98 -3 91 6 59 -12 -93 -50 -11 -3 9 -4 45
-1 36 2 72 0 80 -5 11 -7 7 -10 -17 -10 -17 0 -35 -4 -38 -10 -3 -5 0 -8 7 -5
26 8 308 13 308 5 0 -10 -57 -25 -82 -21 -9 1 -19 -3 -23 -10 -6 -8 -10 -7
-17 2 -8 11 -11 11 -15 1 -3 -8 -16 -11 -36 -7 -18 3 -52 -1 -77 -9 -37 -11
-40 -14 -18 -15 15 -1 30 -5 33 -11 8 -13 52 -13 60 0 4 6 12 10 18 8 7 -1 53
2 102 7 85 7 221 10 310 5 l40 -2 -35 -8 c-19 -4 -46 -12 -60 -18 -21 -10 -18
-10 20 -6 25 4 63 10 84 14 22 5 44 6 49 3 5 -3 29 -6 54 -8 29 -2 41 0 32 6
-8 5 -29 9 -46 9 -18 0 -33 5 -33 11 0 7 21 9 63 5 34 -3 109 -9 167 -12 58
-4 134 -8 170 -10 90 -6 257 -5 305 1 22 3 76 7 121 10 44 2 93 9 108 15 15 5
43 10 62 10 19 0 34 4 34 9 0 10 -54 9 -80 -2 -8 -3 -60 -11 -115 -17 -90 -10
-101 -9 -112 6 -10 14 -17 15 -35 7 -20 -9 -77 -10 -222 -4 -79 3 34 20 174
26 30 1 70 3 88 3 17 1 32 7 32 13 0 8 -13 10 -37 6 -56 -9 -75 7 -29 24 45
16 47 37 4 30 -5 0 -8 4 -8 9 0 6 20 10 45 10 33 0 47 5 55 19 7 14 16 17 32
13 l23 -6 -25 -7 c-24 -7 -24 -7 5 -8 20 -1 34 6 42 18 12 19 10 20 -52 16
-36 -2 -65 1 -65 6 0 11 -11 10 100 15 88 5 109 12 110 37 0 5 -6 5 -12 1 -7
-5 -40 -9 -73 -11 -33 -1 -73 -5 -88 -8 -15 -2 -26 -1 -23 4 3 5 38 12 77 15
75 8 85 21 16 21 -29 0 -41 4 -39 13 1 9 -12 11 -55 6 -60 -7 -83 -14 -45 -14
12 0 22 -4 22 -9 0 -5 -10 -9 -22 -9 -13 0 -68 -1 -123 -1 -100 -2 -209 2
-360 14 -44 3 -101 6 -128 6 -49 1 -69 12 -39 23 9 3 37 19 62 36 25 16 63 39
84 51 21 11 44 25 50 30 6 5 20 16 30 23 18 12 14 15 -38 31 -31 10 -59 22
-62 26 -3 5 -11 9 -18 9 -8 0 -30 7 -50 15 -20 8 -38 16 -41 16 -12 2 -222
113 -236 125 -8 8 -21 14 -28 14 -7 0 -10 4 -7 9 5 8 93 7 276 -4 294 -18 529
-12 670 16 30 6 80 15 110 21 30 6 59 15 65 20 5 4 24 8 42 8 18 0 33 5 33 11
0 8 -19 10 -62 6 -63 -6 -63 -5 -23 7 35 12 21 13 -125 9 -90 -2 -162 -1 -158
2 8 8 103 24 178 30 30 2 69 8 85 14 27 8 28 9 6 10 -13 1 -29 8 -36 18 -10
13 -17 14 -43 5 -17 -6 -40 -8 -51 -5 -12 3 -21 1 -21 -3 0 -5 -19 -9 -42 -9
-24 0 -115 -3 -203 -7 -88 -3 -149 -4 -135 -1 14 2 32 7 40 10 71 28 209 73
225 73 11 1 31 7 45 15 22 12 22 14 5 13 -11 0 -38 -6 -60 -13z m-1150 -265
c-3 -5 -16 -10 -28 -9 -20 1 -20 2 3 9 14 4 26 8 28 9 2 1 0 -3 -3 -9z m300
-91 c9 -10 -63 -16 -155 -13 -99 3 -103 4 -70 13 30 8 216 8 225 0z m-235 -65
c-26 -7 -160 -21 -160 -17 0 10 48 19 108 20 37 0 60 -1 52 -3z m-233 -30 c-3
-3 -12 -4 -19 -1 -8 3 -5 6 6 6 11 1 17 -2 13 -5z m198 -205 c-55 -11 -105
-11 -105 0 0 5 33 9 73 9 64 -1 67 -2 32 -9z m275 -19 c36 -5 -59 -18 -105
-15 -63 4 -64 5 -41 14 16 6 95 7 146 1z m40 -10 c0 -5 -4 -10 -10 -10 -5 0
-10 5 -10 10 0 6 5 10 10 10 6 0 10 -4 10 -10z"/>
<path d="M2853 5468 c-42 -8 -53 -13 -53 -29 0 -10 6 -19 14 -19 8 0 17 -7 20
-16 3 -9 6 -133 6 -276 0 -254 -1 -260 -20 -265 -13 -3 -20 -12 -18 -22 3 -13
19 -17 91 -19 80 -3 87 -1 87 17 0 10 -7 21 -15 25 -13 5 -15 49 -15 311 l0
305 -22 -1 c-13 -1 -47 -6 -75 -11z"/>
<path d="M3967 5416 c-21 -6 -35 -15 -31 -19 11 -11 62 -8 69 3 3 6 15 10 26
10 11 0 17 5 14 10 -8 12 -29 11 -78 -4z"/>
<path d="M3200 5286 c-25 -7 -63 -22 -85 -32 -37 -18 -40 -22 -43 -67 -3 -40
0 -47 15 -47 10 0 28 16 40 35 51 77 177 104 246 52 63 -48 93 -121 99 -247
l3 -55 -181 -3 -180 -2 -24 25 c-28 30 -60 33 -60 7 0 -10 5 -44 11 -75 l12
-57 285 0 285 0 -6 108 c-8 143 -23 201 -66 259 -53 69 -128 105 -229 109 -44
2 -96 -2 -122 -10z"/>
<path d="M2690 5249 c-19 -4 -52 -10 -72 -13 -28 -5 -38 -12 -38 -25 0 -10 9
-21 20 -24 19 -5 20 -14 20 -229 0 -232 -8 -290 -41 -311 -33 -21 -23 -37 24
-37 46 0 99 27 117 59 7 14 9 115 8 304 l-3 283 -35 -7z"/>
<path d="M871 5190 c-176 -63 -250 -206 -189 -367 26 -71 127 -177 207 -218
223 -112 483 -71 582 93 30 50 34 64 34 127 0 57 -5 81 -29 128 -54 110 -179
206 -320 243 -77 21 -220 17 -285 -6z"/>
<path d="M5488 5013 c7 -3 16 -2 19 1 4 3 -2 6 -13 5 -11 0 -14 -3 -6 -6z"/>
<path d="M7101 4980 c-323 -69 -461 -353 -263 -547 42 -41 138 -94 197 -108
254 -62 523 37 609 224 29 66 28 162 -2 221 -46 88 -125 151 -240 191 -65 24
-231 34 -301 19z"/>
<path d="M5305 4794 l-30 -14 35 6 c19 3 43 6 52 6 10 -1 20 3 23 9 9 14 -46
10 -80 -7z"/>
<path d="M5560 4730 c0 -12 8 -12 35 0 18 8 17 9 -7 9 -16 1 -28 -3 -28 -9z"/>
<path d="M4305 4650 c-16 -7 -17 -9 -3 -9 9 -1 20 4 23 9 7 11 7 11 -20 0z"/>
<path d="M4248 4623 c6 -2 18 -2 25 0 6 3 1 5 -13 5 -14 0 -19 -2 -12 -5z"/>
<path d="M4190 4610 c-8 -5 -24 -10 -36 -10 -11 0 -29 -7 -40 -16 -18 -15 -18
-15 3 -5 12 6 32 11 45 11 13 0 32 7 42 15 22 17 10 20 -14 5z"/>
<path d="M3492 4133 c3 -311 4 -319 26 -358 13 -22 38 -50 56 -63 l33 -22 830
2 829 3 35 24 c76 52 74 38 77 404 l3 327 -51 0 -50 0 0 -289 c0 -283 -5 -335
-33 -353 -7 -4 -44 -8 -84 -8 l-71 0 -1 132 c-2 117 -5 139 -25 185 -54 116
-190 150 -366 92 -36 -11 -66 -22 -68 -24 -6 -5 38 -85 47 -85 5 0 28 7 51 15
50 18 159 20 194 3 50 -22 60 -53 66 -191 l5 -127 -277 0 -278 0 0 220 0 220
-50 0 -50 0 0 -220 0 -220 -67 0 -68 0 3 220 3 220 -51 0 -50 0 0 -220 0 -220
-70 0 -70 0 1 203 c0 111 0 210 0 220 -1 13 -10 17 -46 17 l-45 0 0 -220 0
-220 -125 0 c-180 0 -165 -31 -165 345 l0 305 -51 0 -50 0 3 -317z"/>
<path d="M5505 4437 c-3 -6 -4 -176 -3 -377 l3 -365 53 -3 52 -3 0 380 0 381
-50 0 c-31 0 -52 -5 -55 -13z"/>
<path d="M3047 4226 c-84 -31 -150 -110 -165 -196 -7 -41 -9 -43 -55 -55 -61
-15 -96 -41 -124 -91 -21 -36 -23 -51 -23 -221 l0 -183 50 0 50 0 0 154 c0
195 14 236 79 236 17 0 21 -6 21 -31 0 -41 42 -123 82 -159 78 -72 205 -81
291 -21 55 37 92 91 107 153 13 59 12 176 -2 238 -14 61 -70 131 -130 161 -52
27 -132 33 -181 15z m143 -113 c51 -30 70 -79 70 -184 0 -70 -5 -103 -18 -128
-53 -105 -187 -105 -239 -1 -30 58 -33 196 -5 250 35 71 128 101 192 63z"/>
<path d="M3290 3421 c-22 -4 -36 -12 -38 -23 -2 -10 1 -18 7 -18 8 0 11 -63
11 -195 l0 -195 48 -1 c187 -2 317 3 323 13 4 7 13 7 27 -1 28 -15 74 -14 98
3 17 12 22 12 39 0 14 -10 53 -14 147 -14 l128 0 -2 218 -3 217 -25 -2 c-49
-5 -70 -14 -70 -28 0 -8 5 -15 10 -15 6 0 10 -62 10 -165 l0 -165 -30 0 -30 0
0 86 0 87 -45 -6 c-56 -6 -62 -11 -41 -32 11 -11 16 -34 16 -70 0 -71 -7 -85
-40 -85 -33 0 -40 17 -40 110 l0 65 -45 -3 c-30 -3 -45 -9 -45 -18 0 -8 5 -14
10 -14 18 0 8 -121 -11 -133 -36 -22 -49 -2 -49 74 l0 72 -45 -6 c-47 -5 -69
-16 -47 -24 7 -3 12 -24 12 -54 0 -49 -1 -50 -27 -47 -28 3 -28 3 -31 92 l-3
88 -31 -6 c-17 -3 -39 -6 -49 -6 -23 0 -25 -25 -4 -34 11 -4 15 -22 15 -71 l0
-65 -50 0 -50 0 0 190 c0 105 -3 189 -7 189 -5 -1 -24 -4 -43 -8z"/>
<path d="M5520 3421 c-22 -4 -36 -12 -38 -23 -2 -10 1 -18 7 -18 7 0 11 -54
11 -165 l0 -165 -46 0 c-43 0 -46 1 -40 23 18 60 17 86 -2 129 -24 54 -68 78
-157 86 -48 3 -69 0 -101 -16 -64 -33 -74 -49 -63 -105 5 -27 11 -52 14 -57 6
-10 45 -1 45 11 0 5 10 9 23 9 27 0 67 -38 67 -64 0 -15 -11 -16 -97 -14 l-98
3 -3 80 c-3 93 -15 111 -76 120 -55 9 -112 -14 -126 -50 -6 -15 -10 -55 -10
-91 l0 -64 -35 0 -35 0 0 171 0 172 -31 -7 c-17 -3 -38 -6 -45 -6 -8 0 -14 -7
-14 -15 0 -8 5 -15 10 -15 6 0 10 -63 10 -170 0 -149 -2 -170 -16 -170 -9 0
-34 -13 -57 -29 -55 -39 -102 -47 -147 -24 -53 28 -82 77 -78 137 3 50 12 61
62 79 5 1 6 13 2 25 -6 16 -15 22 -37 22 -25 0 -33 -6 -45 -35 -7 -19 -14 -57
-14 -85 0 -87 36 -143 113 -175 45 -19 73 -13 152 30 59 33 64 33 183 34 69 0
131 5 143 11 14 8 24 8 33 1 12 -10 152 -13 614 -11 l122 0 0 220 0 220 -32
-6 c-18 -3 -39 -7 -45 -10 -15 -4 -17 -34 -3 -34 6 0 10 -62 10 -165 l0 -165
-40 0 -40 0 0 190 c0 105 -3 189 -7 189 -5 -1 -24 -4 -43 -8z m-199 -207 c22
-20 26 -88 7 -129 -16 -35 -25 -31 -38 14 -10 40 -52 84 -90 96 -43 14 14 47
69 40 18 -2 42 -12 52 -21z m-363 -75 c2 -67 -1 -89 -12 -98 -27 -23 -36 -2
-36 88 0 91 4 104 30 99 12 -3 16 -21 18 -89z"/>
<path d="M3733 3412 c-11 -7 -17 -26 -14 -48 1 -16 35 -23 55 -12 20 11 21 32
0 52 -17 18 -24 19 -41 8z"/>
<path d="M4173 3388 c-42 -9 -53 -20 -33 -33 6 -4 10 -73 10 -176 0 -106 -4
-169 -10 -169 -5 0 -10 -4 -10 -10 0 -5 24 -10 53 -10 l52 0 -3 197 c-2 109
-6 201 -10 204 -4 3 -26 2 -49 -3z"/>
<path d="M3673 3324 c-16 -41 46 -73 67 -34 9 16 8 25 -1 36 -16 19 -58 18
-66 -2z"/>
<path d="M3764 3315 c-8 -30 8 -47 41 -43 15 2 20 11 20 33 0 25 -4 31 -27 33
-22 3 -29 -2 -34 -23z"/>
<path d="M773 3273 c-29 -2 -53 -8 -53 -12 0 -4 71 -27 158 -51 333 -90 572
-177 767 -279 102 -53 117 -58 195 -64 98 -7 210 -42 282 -88 146 -94 225
-277 197 -461 -10 -67 -9 -79 15 -148 106 -316 119 -693 40 -1200 -9 -62 4
-46 64 75 132 267 193 532 192 830 0 192 -17 305 -71 469 -65 199 -152 339
-304 491 -216 217 -494 351 -870 421 -89 16 -486 27 -612 17z"/>
<path d="M2602 3253 c-40 -16 -54 -128 -27 -219 15 -50 64 -108 115 -135 34
-17 137 -16 180 3 19 8 55 32 78 52 l44 36 99 0 99 0 0 121 0 120 -47 -7 c-27
-3 -51 -8 -55 -11 -13 -7 -9 -23 6 -23 19 0 26 -22 26 -86 l0 -54 -69 0 c-38
0 -82 -3 -100 -6 -36 -8 -52 16 -32 48 19 30 4 60 -27 56 -23 -2 -28 -9 -30
-37 -4 -42 14 -86 44 -110 22 -17 22 -19 6 -34 -68 -59 -168 -68 -235 -20 -34
25 -46 42 -64 94 -12 35 -22 72 -23 81 0 10 18 29 40 43 41 26 48 42 30 76
-10 18 -31 23 -58 12z"/>
<path d="M6725 3114 c-115 -17 -264 -52 -344 -80 -521 -188 -866 -612 -976
-1199 -32 -169 -44 -439 -26 -610 14 -143 53 -350 62 -333 3 7 9 42 13 78 4
36 11 90 16 120 5 30 19 111 31 180 47 283 109 522 175 675 12 30 17 74 19
170 3 191 47 313 151 420 91 94 193 142 328 152 74 6 90 11 176 59 280 155
642 241 1135 267 54 3 53 4 -45 36 -148 48 -254 63 -475 66 -115 2 -223 1
-240 -1z"/>
<path d="M3112 2948 c-21 -21 -14 -47 14 -54 31 -8 47 6 42 37 -3 27 -36 37
-56 17z"/>
<path d="M3434 2935 c-8 -32 6 -48 37 -43 19 2 24 9 24 33 0 25 -4 31 -27 33
-22 3 -29 -2 -34 -23z"/>
<path d="M2697 2864 c-14 -15 -7 -53 12 -59 31 -10 52 5 49 34 -2 19 -9 27
-28 29 -14 2 -29 0 -33 -4z"/>
<path d="M2794 2856 c-11 -28 1 -51 25 -51 28 0 47 25 38 49 -8 20 -56 21 -63
2z"/>
<path d="M1601 2604 c-121 -32 -269 -135 -330 -229 -64 -100 -80 -219 -40
-302 59 -123 239 -183 414 -138 154 39 309 154 374 274 86 161 29 329 -132
389 -69 26 -201 29 -286 6z"/>
<path d="M6119 2392 c-116 -54 -175 -166 -167 -316 6 -102 28 -176 76 -255 72
-119 170 -198 282 -227 160 -41 291 41 336 211 58 217 -95 505 -309 584 -70
26 -166 27 -218 3z"/>
<path d="M3835 1790 c-393 -62 -764 -297 -1067 -676 -91 -114 -218 -304 -204
-304 3 0 63 46 133 103 282 227 495 373 668 457 62 30 91 51 121 88 86 108
220 191 343 213 123 21 256 -18 348 -104 36 -33 62 -47 103 -57 274 -64 565
-235 879 -518 40 -37 78 -69 84 -71 12 -5 -82 175 -126 239 -107 157 -274 323
-425 424 -146 98 -284 157 -445 192 -86 19 -327 27 -412 14z"/>
<path d="M3795 1408 c-86 -31 -171 -117 -220 -223 -45 -97 -58 -165 -53 -276
4 -76 9 -104 31 -145 59 -116 127 -160 232 -151 152 12 288 162 331 367 38
180 -22 360 -140 418 -47 24 -129 28 -181 10z"/>
</g>
</svg>
